{"title":"Spectre 2015 HDCAM XVID-RAV3N","uid":12758022,"size":1608971709,"categoryP":"video","categoryS":"movies","magnet":"?xt=urn:btih:9ff63ddde2c369e55da0d469851e4fb5ea8bca86&amp;dn=Spectre+2015+HDCAM+XVID-RAV3N&amp;tr=udp%3A%2F%2Ftracker.leechers-paradise.org%3A6969&amp;tr=udp%3A%2F%2Fzer0day.ch%3A1337&amp;tr=udp%3A%2F%2Fopen.demonii.com%3A1337&amp;tr=udp%3A%2F%2Ftracker.coppersurfer.tk%3A6969&amp;tr=udp%3A%2F%2Fexodus.desync.com%3A6969","seeders":14,"leechers":6,"uploader":"makintos13","files":3,"time":1447479284,"description":"screens:\r\n \nhttp://imgmak.com/4m\r\n \nhttp://imgmak.com/4u\r\n \nhttp://imgmak.com/45\r\n \nhttp://imgmak.com/41\r\n \nhttp://imgmak.com/4U\r\n \nhttp://imgmak.com/43\r\n \nhttp://imgmak.com/4G\r\n\r\n;:::::::::\r\n\r\nSource: InComing/CPG thank you!\r\nSample: Yes\r\nSubtitles: English .srt (thanks to CPG)\r\n\r\nstable the video and fix the audio delay issue. \r\n\r\nFormat                      : AVI\r\nFormat/Info                 : Audio Video Interleave\r\nFile size                   : 1.49 GiB\r\nDuration                    : 2h 18mn\r\nOverall bit rate            : 1 538 Kbps\r\n\r\nVideo\r\nID                          : 0\r\nFormat                      : MPEG-4 Visual\r\nFormat profile              : Advanced   \r\nFormat settings, BVOP       : 2\r\nFormat settings, QPel       : Yes\r\nFormat settings, GMC        : No warppoints\r\nFormat settings, Matrix     : Default (H.263)\r\nMuxing mode                 : Packed bitstream\r\nCodec ID                    : XVID\r\nCodec ID/Hint               : XviD\r\nDuration                    : 2h 18mn\r\nBit rate                    : 1 404 Kbps\r\nWidth                       : 720 pixels\r\nHeight                      : 368 pixels\r\nDisplay aspect ratio        : 1.957\r\nFrame rate                  : 23.976 fps\r\nColor space                 : YUV\r\nChroma subsampling          : 4:2:0\r\nBit depth                   : 8 bits\r\nScan type                   : Progressive\r\nCompression mode            : Lossy\r\nBits/(Pixel*Frame)          : 0.221\r\nStream size                 : 1.36 GiB (91%)\r\nWriting library             : XviD 73\r\n\r\nAudio\r\nID                          : 1\r\nFormat                      : MPEG Audio\r\nFormat version              : Version 1\r\nFormat profile              : Layer 3\r\nMode                        : Joint stereo\r\nMode extension              : MS Stereo\r\nCodec ID                    : 55\r\nCodec ID/Hint               : MP3\r\nDuration                    : 2h 18mn\r\nBit rate mode               : Constant\r\nBit rate                    : 128 Kbps\r\nChannel(s)                  : 2 channels\r\nSampling rate               : 48.0 KHz\r\nCompression mode            : Lossy\r\nStream size                 : 127 MiB (8%)","torrent":{"xt":"urn:btih:9ff63ddde2c369e55da0d469851e4fb5ea8bca86","amp;dn":"Spectre+2015+HDCAM+XVID-RAV3N","amp;tr":["udp%3A%2F%2Ftracker.leechers-paradise.org%3A6969","udp%3A%2F%2Fzer0day.ch%3A1337","udp%3A%2F%2Fopen.demonii.com%3A1337","udp%3A%2F%2Ftracker.coppersurfer.tk%3A6969","udp%3A%2F%2Fexodus.desync.com%3A6969"],"infoHash":"9ff63ddde2c369e55da0d469851e4fb5ea8bca86","infoHashBuffer":{"type":"Buffer","data":[159,246,61,221,226,195,105,229,93,160,212,105,133,30,79,181,234,139,202,134]},"announce":[],"urlList":[]}}